<svg width="228" height="120" viewBox="0 0 228 120" fill="none" xmlns="http://www.w3.org/2000/svg">
<path d="M 0 0 H 228 V 120 H 0 V 0 Z" fill="#161b22"/>
<rect x="29" y="54" width="144" height="53" rx="2" fill="#30363d"/>
<rect x="184" y="54" width="32" height="36" rx="2" fill="#30363d"/>
<rect opacity="0.3" x="29" y="59" width="144" height="12" fill="#401B60"/>
<path opacity="0.6" d="M 0 0 H 228 V 23 H 0 V 0 Z" fill="#33164D"/>
<rect x="13" y="9" width="32" height="6" rx="3" fill="#664980"/>
<rect x="29" y="36" width="48" height="6" rx="3" fill="#6e7681"/>
<rect x="34" y="62" width="64" height="6" rx="3" fill="#664980"/>
<rect x="210" y="36" width="6" height="6" rx="1" fill="#f47a61"/>
<rect x="202" y="36" width="6" height="6" rx="1" fill="#664980"/>
<rect x="53" y="9" width="32" height="6" rx="3" fill="#664980"/>
<rect x="93" y="9" width="32" height="6" rx="3" fill="#664980"/>
</svg>
