<svg id="Layer_1" data-name="Layer 1" xmlns="http://www.w3.org/2000/svg" viewBox="0 0 1000 1000"><defs><style>.cls-1{fill:#fff;}</style></defs><title>fascino-qr</title><rect class="cls-1" x="131.06" y="24.37" width="736.15" height="736.15" rx="42.89"/><path d="M733.37,625.89h22.2V603.75h44.66l-.1-.1v22.2h22.12V648H800.32v44.78H777.89v-22.1h-22v22H778v22.07H689V670.52H644.44l.11.1-.24-22.46h44.36v-22H644.4v22.09H622.18V603.78H600V581.36H555.27l.1.11q-.06-11.19-.1-22.36H621.9V536.76H599.79V492.33h22.1v-22h-22v22.08H577.53V447.8h22.08V425.63H577.53V403.28h44.34V381.11H577.53V358.75H600V314.33h22.19l-.11-.1v44.44h66.9V381.1H666.45v22.34h-22.2v22.2h-22v22h66.56V381l22.35.11-.1-.11v22.36h22.36l-.1-.09v22.35l.1-.09H711.37V447.9h22.09l-.1-.1v22.46H711.31v22.18h22.22v44.19h22.29V514.55H778V492.32l-.1.11h22.23v22.11h22.08v44.54H778v22.18H733.46V626h-22.1v22h22ZM666.58,492.32h22.09v-22h-22v22.07h-22.1v22h22Zm44.34,111.22V537.15H644.53v66.39Zm.48,67v22h21.81v-22Z"/><path d="M199.1,358.86h22.16V314.52H266v22.06h-22.1v22h22V336.49l22.35.11-.1-.11v66.93H266v22.21H243.88V447.8H266v22.45h22.17v44.43l.1-.11h-44.5V492.45h-22.2V448H199.21v88.59H177.08V425.77h44.24V403.45H243.4V381H199.09l.1.1q0-11.18,0-22.34Z"/><path d="M177,225V69.58H332.43V225Zm133.17-22.16V91.92H199.3V202.83Z"/><path d="M666.78,225V69.6H822.17V225ZM800.05,91.89H689.14V202.8H800.05Z"/><path d="M332.44,714.83H177.07V559.44H332.44ZM310.3,581.64H199.39V692.56H310.3Z"/><path d="M310.5,269.8V247.73H421.55V269.6H399.69v44.5h21.89V292.26h44.49v21.86H444v44.73l.11-.1-22.36.1V336.77H399.53v22.08H377.27v44.52h-66.6V381h22V358.76h22.09V336.58H332.65q0-11.18.1-22.35l-.1.1H377V292H332.65l.1.1V269.71H310.39Z"/><path d="M399.42,536.86v22.21h22.26v89.17l.1-.1-22.33.11v-22.1h-22v22h22.08V670.4H377.31v44.32H355.17V603.88h44.09V581.44H355.14V537h44.39Z"/><path d="M444.16,158.26l-22.46.13.1.11V136.41H399.44V158.5l.09-.11H355.2V136.31H377V114H355.16V91.83h22V69.6h22.17v44.11h22.3V91.94H466V113.8h-22v44.57Z"/><path d="M399.53,537V514.57H332.65l.1.11q0-11.17-.1-22.35h44.53V470.06H466V492.5H444v44.44l.1-.1-44.64,0Z"/><path d="M466.33,203V180.77H444.16V158.26a.87.87,0,0,0-.09.11l84.62.09h4.22v22.19h22.33l-.11-.09c.06,9.18.14,18.36.17,27.53q.06,19.66.07,39.32l.1-.11H533.28V203.22H510.91v21.95H488.48l.1.11V202.92H466.22Z"/><path d="M555.38,314.33q0-33.51.09-67l-.1.1h44.54V225.19l-.1.1H622V203.2H644.3v44.34l.11-.1H622.05v44.63l.1-.1H577.47v22.26h-22.2Z"/><path d="M533.1,581.36H488.46v22.36l.11-.1H466.34v22.12H444.28V581.49h21.83V559.3H444.06V536.84l-.1.1h66.93v22.17H533.1L533,581.47Z"/><path d="M444,358.85h66.89l-.1-.11V381H533.1v22.42H488.58v22.19H466.11v22H444.25V403.17H466.1V381h-22V358.75Z"/><path d="M310.49,292H266v-22H199.2V314H177.08V247.67H288V269.8H310.5l-.11-.09v22.36Z"/><path d="M622.16,114V91.89H577.7v22H555.28l.1.1V91.75H511V69.68H644.08v44.18h-22Z"/><path d="M577.53,626h22.08v44.33H533.22v22.15H488.74V670.64h22v-22.3H532.9V626h22.47l-.1-.11V648h22.36V625.89Z"/><path d="M733.35,269.72V292h-89l.1.11V247.44l-.11.1h22.2v22h22.27V247.78H711v22h22.43Z"/><path d="M510.84,358.86V336.62h-22.1V314.45h22V292.21H532.9v22.12h22.48l-.11-.1.1,22.35H533.1v22.27l-22.36-.1Z"/><path d="M555.16,136.38h22.25v22h66.74v22a13.91,13.91,0,0,1-2.08.29q-42.8,0-85.6,0a12.39,12.39,0,0,1-1.34-.13l.11.09q0-22.18,0-44.39Z"/><path d="M421.68,648.24H466v22.1H444.15v44.41H399.68V692.87h22.1V648.14Z"/><path d="M488.57,247.43H466.34v22.13H444.28V203h22.05l-.11-.1v22.36h22.36l-.1-.11q0,11.19,0,22.36Z"/><path d="M777.87,425.54q0,33.45,0,66.89l.1-.11H755.56V447.8h-22.2l.1.1V425.54l-.1.09H778Z"/><path d="M421.7,158.39V225H399.53V158.39l-.09.11H421.8Z"/><path d="M733.47,358.84V314.55h22.09v22.06H778l-.1-.1v22.22h-44.5Z"/><path d="M644.21,314.47c9.55-.06,19.1-.15,28.65-.17,12.58,0,25.17,0,38,0v22H644.3c0-7.24,0-14.6,0-22Z"/><path d="M377,225.15H355.23V181H377Z"/><path d="M733.36,381.12h44.51v22.25l.11-.09H733.36l.1.09V381Z"/><path d="M332.65,514.57v22.08H288.23V514.57l-.1.11h44.62Z"/><path d="M800.49,358.89h21.7v21.93h-21.7Z"/><path d="M199.09,381v22.06h-22v-22h22.08Z"/><path d="M488.83,114h21.69V136H488.83Z"/><path d="M555.28,113.86q-.06,11.25-.11,22.51l.09-.11h-22V114h22.1Z"/><path d="M622.06,113.86v22.06h-22V114h22.08Z"/><path d="M777.87,403.37h22.07v22.17H777.87l.11.09V403.28Z"/><path d="M599.91,225.19H577.84v-22h22v22.08Z"/><path d="M488.46,247.53h22.07v22h-22V247.43Z"/><path d="M733.45,269.82V247.76h22v22H733.35Z"/><path d="M800.23,269.69H778.16v-22h22v22.12Z"/><path d="M800.13,269.79h22.06v22h-22V269.69Z"/><path d="M310.5,314.33q0-11.19,0-22.37l-.1.11h22.36l-.1-.1v22.36l.1-.1H310.39Z"/><path d="M800.28,469.81V448.12h21.94v21.69Z"/><path d="M644.31,292q0,11.25-.1,22.5s.1-.11.1-.1L622,314.23l.11.1V292l-.1.1h22.36Z"/><path d="M288.23,336.6V314.33H310.5l-.11-.1.09,22.36-22.35-.1Z"/><path d="M778,336.61V314.54h22v22H777.87Z"/><path d="M199.2,358.76H177.13v-22h22v22.08Z"/><path d="M555.47,603.49H533.1V581.36l-.09.11h22.36l-.1-.11q0,11.11.1,22.24Z"/><path d="M800.23,603.75V581.68h22v22H800.13Z"/><path d="M488.46,603.72h22.07v22h-22V603.62Z"/><path d="M555.37,626q0-11.25.1-22.51l-.1.11h22.16V626l.1-.11H555.27Z"/><path d="M622.16,692.76V670.61h22.39l-.11-.09c0,7.26,0,14.52,0,22.14H622.06Z"/><path d="M733.37,358.73q0,11.2,0,22.39l.1-.11H711.1l.1.11V358.84h22.27Z"/><path d="M555.52,692.9h21.8v21.86h-21.8Z"/><path d="M622.06,692.66v22.06h-22v-22h22.08Z"/><path class="cls-1" d="M599.79,492.33v44.43H621.9v22.35H555.27l.09.09V536.85l-.09.09h22.06V514.59H555.27l.09.09V447.8l-.09.09h22.35l-.09-.09v44.62h22.35Z"/><path class="cls-1" d="M710.92,603.54H644.53V537.15h66.39Zm-44.13-22.37H688.6V559.35H666.79Z"/><path class="cls-1" d="M688.85,381v66.62H622.29v-22h22v-22.2h22.2V381.1h22.49Z"/><path class="cls-1" d="M733.36,447.8h22.2v44.52H778v22.23H755.82v22.08H733.53V492.44H711.31V470.26h22.05Z"/><path class="cls-1" d="M488.58,425.63V403.44H533.1V381l-.09.09h22.35l-.09-.09v22.35h22.35l-.09-.09v22.35l.09-.09H555.27v22.35l.09-.09H533l.09.09V425.54H488.49Z"/><path class="cls-1" d="M622.15,292v22.36H600v44.42H577.53l.09.1V336.49H555.27l.1.09-.1-22.35h22.2V292Z"/><ellipse class="cls-1" cx="755.67" cy="414.46" rx="31.55" ry="15.81"/><path class="cls-1" d="M577.53,381.11h44.34v22.17H577.53l.09.09V381Z"/><path class="cls-1" d="M644.4,648.26V626.17h44.27v22H644.31Z"/><path class="cls-1" d="M711.1,381h22.36v22.36H711.1Z"/><path class="cls-1" d="M577.53,425.63h22.08V447.8H577.53l.09.09V425.54Z"/><path class="cls-1" d="M733.46,425.54V447.9H711.37V425.54Z"/><path class="cls-1" d="M599.88,492.42V470.34h22v22h-22.1Z"/><path class="cls-1" d="M666.68,492.41V470.34h22v22H666.58Z"/><path class="cls-1" d="M666.58,492.32V514.4h-22v-22h22.1Z"/><path class="cls-1" d="M555.37,581.47H533l.09-22.36-.09.09h22.35l-.09-.09Q555.31,570.28,555.37,581.47Z"/><path class="cls-1" d="M733.37,625.89V648h-22V626h22.1Z"/><path class="cls-1" d="M577.53,358.75v22.36l.09-.09H555.27l.09.09V358.76l-.09.09h22.35Z"/><path class="cls-1" d="M711.4,670.58h21.81v22H711.4Z"/><path class="cls-1" d="M778,692.69H755.9v-22h22v22.1Z"/><path class="cls-1" d="M288.13,336.49l22.35.1-.09-.1v22.36h22.36l-.1-.09V381h-22v22.42h66.6l-.09-.09v22.35l.09-.09H265.87l.09.09V403.42h22.17Z"/><path class="cls-1" d="M332.75,514.68H288.13V470.25H266V447.8l-.09.09h66.78v22.27l.1-.1H310.69v22.36h22.06l-.1-.09Q332.7,503.51,332.75,514.68Z"/><path class="cls-1" d="M266,447.8H243.88V425.63H266l-.09-.09v22.35Z"/><path class="cls-1" d="M265.88,336.49v22.08h-22v-22H266Z"/><path class="cls-1" d="M310.21,202.83H199.3V91.92H310.21Zm-22.29-22.27V114.22H221.59v66.34Z"/><path class="cls-1" d="M800.05,91.89V202.8H689.14V91.89Zm-88.74,88.57h66.34V114.12H711.31Z"/><path class="cls-1" d="M310.3,581.64V692.56H199.39V581.64Zm-88.74,88.57H287.9V603.87H221.56Z"/><path class="cls-1" d="M444.06,358.75V381h22v22.19H444.25v44.48h21.86v-22h22.47l-.09-.09v22.35H533.1l-.09-.09v22.43H510.85v22.18H488.77v22h22V492.3h22.43v22.38h22.18l-.09-.09v22.35l.09-.09H533V559.2l.09-.09H510.89V536.94H444V492.5H466V470.06H377.18l.09.1V425.54l-.09.09h22.44v21.93h22.17v-88.8l-.09.09Z"/><path class="cls-1" d="M332.65,314.33V292H377v22.36Z"/><path class="cls-1" d="M377.27,403.37V358.85h22.26l-.09-.09v44.52H377.18Z"/><path class="cls-1" d="M332.75,292.07H310.39V269.71h22.36Z"/><path class="cls-1" d="M310.48,336.59l-.09-22.36h22.36q0,11.17-.1,22.35l.1-.09H310.39Z"/><path class="cls-1" d="M332.65,336.58h22.09v22.18H332.65l.1.09V336.49Z"/><path class="cls-1" d="M399.53,358.85V336.77H421.7v22.08l.09-.09H399.44Z"/><path class="cls-1" d="M399.54,648.16H377.46v-22h22v22.1Z"/><path class="cls-1" d="M421.8,158.5H399.44V136.41H421.8Z"/><path class="cls-1" d="M377.18,470.06v22.27H332.65l.1.09V470.06l-.1.1h44.62Z"/><path class="cls-1" d="M488.58,225.28H466.22V202.92h22.36Z"/><path class="cls-1" d="M644.41,292.07H622.05V247.44h22.36Z"/><path class="cls-1" d="M510.74,358.75l22.36.1-.09-.09v22.35l.09-.09H510.74Z"/><path class="cls-1" d="M555.27,625.89h22.36V648H555.27Z"/><path class="cls-1" d="M533.1,358.85V336.58h22.27l-.1-.09v22.36l.09-.09H533Z"/><path d="M510.85,492.41V470.23H533V447.8h22.35v66.88H533.18V492.3H510.75Z"/><path d="M577.62,425.54v22.35H555.27V425.54Z"/><path d="M555.27,536.94V514.59h22.06v22.35Z"/><path d="M533,559.2V536.85h22.35V559.2Z"/><path d="M666.79,581.17V559.35H688.6v21.82Z"/><path d="M533.1,447.89H488.49V425.54H533.1Z"/><path d="M555.27,381h22.35v22.35H555.27Z"/><circle cx="544.19" cy="369.93" r="15.81"/><path d="M555.27,358.85V336.49h22.35v22.36Z"/><path d="M377.27,470.16H332.65V447.89H265.87V425.54h111.4Z"/><path d="M399.44,358.76h22.35v88.8H399.62V425.63H377.18V403.28h22.26Z"/><path d="M332.75,336.49v22.36H310.39V336.49Z"/><path d="M332.75,470.06v22.36H310.69V470.06Z"/><path d="M287.92,180.56H221.59V114.22h66.33Z"/><path d="M711.31,180.46V114.12h66.34v66.34Z"/><path d="M221.56,670.21V603.87H287.9v66.34Z"/><path d="M510.75,492.3v22.07h-22v-22h22.08Z"/><path d="M878.43,44.68V739.6c-.3,1.2-.55,2.41-.9,3.59-3.79,12.78-12.06,21.29-24.61,25.64-4.43,1.54-9,1.73-13.68,1.73H161.57c-1.18,0-2.35,0-3.53,0a37,37,0,0,1-34-24.61A46.55,46.55,0,0,1,121.57,730q0-337.21.05-674.45a84.24,84.24,0,0,1,.65-10.29,35.61,35.61,0,0,1,12-22.67c7.57-6.76,16.57-9.48,26.65-9.48q339.33.06,678.67,0c1.77,0,3.54.05,5.29.19a37.46,37.46,0,0,1,32.76,27.93C877.92,42.43,878.17,43.56,878.43,44.68Zm-378.33,697H778.54q25.85,0,51.7,0a19.45,19.45,0,0,0,19-14.53,31.83,31.83,0,0,0,.83-8q0-327.39,0-654.79c0-1,0-2,0-3A19.84,19.84,0,0,0,835,42.47a29.66,29.66,0,0,0-7-.67q-327.61,0-655.23,0c-.93,0-1.85,0-2.78,0A19.81,19.81,0,0,0,151,57.6a32.07,32.07,0,0,0-.45,6.51q0,327.39,0,654.79c0,1,0,2,0,3a19.65,19.65,0,0,0,14.27,18.94,27.29,27.29,0,0,0,7.22.78Q336.05,741.7,500.1,741.68Z"/><path d="M791,986.85H209.45c-.64-.16-1.28-.36-1.94-.47-2.57-.41-5.18-.63-7.71-1.22q-51.87-11.94-71.88-61.33a91.57,91.57,0,0,1-6.33-32.77,89.65,89.65,0,0,1,1.73-19c6.71-33.49,25.66-57.57,56.64-72,12.93-6,26.68-8.29,40.93-8.29q279.48.08,559,0,2.77,0,5.55.06a88,88,0,0,1,17.72,2.3c46.73,10.79,75.39,52.42,75.32,92.3,0,7.49-.2,14.94-1.62,22.35-7.36,38.22-39.11,69.67-77.45,76.55C796.56,985.88,793.75,986.36,791,986.85Zm-494.5-97.62c.05-43-35.2-77.33-77.38-77.29a77.36,77.36,0,1,0,77.38,77.29ZM643.9,930.46c0-10.7.05-21.12,0-31.54s-.25-20.85-.38-31.27l.22-.09q11.82,31.44,23.66,62.9h7.49q12-31.49,24-62.8a4.11,4.11,0,0,1,.42,2.27c-1,19.77-.37,39.55-.52,59.32a5.4,5.4,0,0,0,.26,1.14h8.55v-72c-.95,0-1.77-.11-2.6-.12h-8.07c-2.47,0-2.47,0-3.38,2.38q-10.37,27.08-20.74,54.15c-.33.89-.73,1.75-1.35,3.19L648.91,858.3c-4.62,0-8.94-.11-13.26,0v72.12ZM539.82,871l.5-.16c.47.68.94,1.34,1.39,2q14.22,22,28.45,44.11c2.59,4,5.16,8.08,7.81,12.07.42.64,1.17,1.46,1.79,1.49,3.17.15,6.35.07,9.6.07V858.47h-8.31v29.7c0,2.53,0,5.05,0,7.58s0,4.88.07,7.32.27,5,.29,7.57c0,2.33.37,4.69-.1,7a9.12,9.12,0,0,1-1.49-1.84c-11.54-17.88-23.18-35.7-34.52-53.7-1.94-3.07-3.93-4.39-7.42-3.91a44.63,44.63,0,0,1-5.43.09,10.21,10.21,0,0,0-.2,1.33v69.43a6.67,6.67,0,0,0,.13,1c0,.07.1.13.15.2l.35.34h7.78C540.33,910.49,541.22,890.73,539.82,871ZM522.2,930.53c-9.47-24.41-18.79-48.43-28.14-72.5h-8.17c-9.41,24.26-18.8,48.24-28.15,72.47h9.07l8.6-22.25h28.75q4.39,11.25,8.7,22.28Zm205.31-71.86v71.54c2.08.53,37.8.57,40.08.06v-7.61H752.08c-2.6,0-5.21,0-7.82,0s-5.14.12-7.65-.09V896.78h29.14v-8H736.61V866.15h31v-7.53C765.24,858.09,729.55,858.14,727.51,858.67Zm-340.44,2.66c-1.16-.48-2-.87-2.85-1.18a49,49,0,0,0-17.58-2.88,27.8,27.8,0,0,0-12.69,2.8c-5.16,2.66-8.64,6.65-9.56,12.52a22.17,22.17,0,0,0,.69,9.74,18,18,0,0,0,7.74,9.94,56.85,56.85,0,0,0,11.83,5.58A47.91,47.91,0,0,1,375.28,903c3.82,2.67,4.93,6.42,4.35,10.84a9.73,9.73,0,0,1-6.81,8.31,26.57,26.57,0,0,1-7.11,1.48,50.13,50.13,0,0,1-20.27-3.23c-.67-.23-1.36-.42-2.16-.66V928a8.05,8.05,0,0,0,.91.56,12.11,12.11,0,0,0,1.64.64,53.27,53.27,0,0,0,26.67,1.29c8.93-1.91,17.43-8.23,16.19-21.74a15.43,15.43,0,0,0-6.32-11.59,51.45,51.45,0,0,0-8.28-4.75c-3.34-1.57-6.91-2.64-10.26-4.19a30.23,30.23,0,0,1-6.92-4.06,10.44,10.44,0,0,1,3.57-18,22.35,22.35,0,0,1,9.48-.85,51,51,0,0,1,12.7,3.06,13.53,13.53,0,0,0,1.73.39Zm67.4.15c-1.33-.57-2.31-1-3.32-1.41a46.44,46.44,0,0,0-21.09-2.54c-13.09,1.34-22.45,7.8-27.37,20.24A41.79,41.79,0,0,0,400,890.29c-.52,7.46.05,14.81,2.73,21.85,4,10.43,11.45,16.73,22.49,18.74a57.19,57.19,0,0,0,17.08.12,32.63,32.63,0,0,0,9.27-2.42V921l-2.54.58a61.6,61.6,0,0,1-15.69,2.11c-11-.18-19.16-6.16-22.28-16.68a41.83,41.83,0,0,1-1.49-8.17c-.61-6.86-.13-13.64,2.83-20,3.52-7.55,9.36-12.08,17.71-13.32a31.71,31.71,0,0,1,13.22,1c2.49.68,4.91,1.61,7.58,2.5Z"/><path class="cls-1" d="M296.45,889.23a77.3,77.3,0,1,1-77.38-77.29C261.25,811.9,296.5,846.19,296.45,889.23Zm-33-2.08a24.25,24.25,0,0,0,2.92-1.76,6.7,6.7,0,0,0,2.28-7.25c-.64-2.8-2.69-3.92-5.25-4.35a24.39,24.39,0,0,0-3.52-.23c-3.28,0-6.56,0-9.84,0a38.35,38.35,0,0,1-5-.25c-4-.57-6.32-3.33-5.89-7.36a19,19,0,0,1,1.52-5.28,27.76,27.76,0,0,0,2-15.3,18.23,18.23,0,0,0-2.28-6.33,8.58,8.58,0,0,0-8.77-4.28c-2.38.23-3.22,1.13-3.42,3.55s-.27,4.54-.52,6.79a21.4,21.4,0,0,1-8,14.94c-2.16,1.73-4.51,3.22-6.8,4.79s-4.64,3-6.9,4.65a13,13,0,0,0-5.56,11.27c0,11.61.05,23.22,0,34.83a6.78,6.78,0,0,0,4.05,6.64,46.14,46.14,0,0,0,19.76,5.48c9.83.31,19.67.16,29.51.16a10,10,0,0,0,3-.5c3.21-1,4.67-2.91,5-6.21a6.26,6.26,0,0,0-2.22-5.59c3.44-.68,6.34-1.63,7-5.19.75-3.83-.57-6.77-4.6-8.52,4.08-1.21,6.49-3.31,6.69-7.36C268.73,890.78,267.08,888.37,263.42,887.15Zm-69.16,10.59c0-7.9,0-15.8,0-23.7,0-3.93-2.14-6.19-6-6.27q-6.3-.12-12.6,0c-3.66.07-5.75,2.19-6,5.8,0,.42,0,.84,0,1.26v45.39a16.81,16.81,0,0,0,.06,2,5.34,5.34,0,0,0,5.58,5q6.67.11,13.35,0c3.3,0,5.42-2.24,5.57-5.58,0-.5,0-1,0-1.51Z"/><path class="cls-1" d="M643.9,930.46h-8.25V858.34c4.32-.15,8.64-.06,13.26,0L671.4,918c.62-1.44,1-2.3,1.35-3.19q10.38-27.07,20.74-54.15c.91-2.37.91-2.38,3.38-2.38h8.07c.83,0,1.65.07,2.6.12v72H699a5.4,5.4,0,0,1-.26-1.14c.15-19.77-.46-39.55.52-59.32a4.11,4.11,0,0,0-.42-2.27q-12,31.37-24,62.8h-7.49q-11.83-31.46-23.66-62.9l-.22.09c.13,10.42.31,20.85.38,31.27S643.9,919.76,643.9,930.46Z"/><path class="cls-1" d="M539.82,871c1.4,19.74.51,39.5.84,59.63h-7.78l-.35-.34c0-.07-.14-.13-.15-.2a6.67,6.67,0,0,1-.13-1V859.65a10.21,10.21,0,0,1,.2-1.33,44.63,44.63,0,0,0,5.43-.09c3.49-.48,5.48.84,7.42,3.91,11.34,18,23,35.82,34.52,53.7a9.12,9.12,0,0,0,1.49,1.84c.47-2.35.12-4.71.1-7,0-2.53-.23-5-.29-7.57s-.06-4.88-.07-7.32,0-5,0-7.58v-29.7h8.31V930.6c-3.25,0-6.43.08-9.6-.07-.62,0-1.37-.85-1.79-1.49-2.65-4-5.22-8-7.81-12.07q-14.22-22.07-28.45-44.11c-.45-.69-.92-1.35-1.39-2Z"/><path class="cls-1" d="M522.2,930.53h-9.34q-4.31-11-8.7-22.28H475.41l-8.6,22.25h-9.07c9.35-24.23,18.74-48.21,28.15-72.47h8.17C503.41,882.1,512.73,906.12,522.2,930.53ZM490,868.44Q484.42,884,478.69,900h22.59C497.42,889.25,493.64,878.7,490,868.44Z"/><path class="cls-1" d="M727.51,858.67c2-.53,37.73-.58,40.15,0v7.53h-31v22.66h29.14v8H736.61v25.79c2.51.21,5.09.06,7.65.09s5.22,0,7.82,0h15.51v7.61c-2.28.51-38,.47-40.08-.06Z"/><path class="cls-1" d="M387.07,861.33l-2.68,7.45a13.53,13.53,0,0,1-1.73-.39,51,51,0,0,0-12.7-3.06,22.35,22.35,0,0,0-9.48.85,10.44,10.44,0,0,0-3.57,18,30.23,30.23,0,0,0,6.92,4.06c3.35,1.55,6.92,2.62,10.26,4.19a51.45,51.45,0,0,1,8.28,4.75,15.43,15.43,0,0,1,6.32,11.59c1.24,13.51-7.26,19.83-16.19,21.74a53.27,53.27,0,0,1-26.67-1.29,12.11,12.11,0,0,1-1.64-.64,8.05,8.05,0,0,1-.91-.56v-8.29c.8.24,1.49.43,2.16.66a50.13,50.13,0,0,0,20.27,3.23,26.57,26.57,0,0,0,7.11-1.48,9.73,9.73,0,0,0,6.81-8.31c.58-4.42-.53-8.17-4.35-10.84a47.91,47.91,0,0,0-10.63-5.16,56.85,56.85,0,0,1-11.83-5.58,18,18,0,0,1-7.74-9.94,22.17,22.17,0,0,1-.69-9.74c.92-5.87,4.4-9.86,9.56-12.52a27.8,27.8,0,0,1,12.69-2.8,49,49,0,0,1,17.58,2.88C385.08,860.46,385.91,860.85,387.07,861.33Z"/><path class="cls-1" d="M454.47,861.48l-3.56,7.5c-2.67-.89-5.09-1.82-7.58-2.5a31.71,31.71,0,0,0-13.22-1c-8.35,1.24-14.19,5.77-17.71,13.32-3,6.35-3.44,13.13-2.83,20a41.83,41.83,0,0,0,1.49,8.17c3.12,10.52,11.24,16.5,22.28,16.68A61.6,61.6,0,0,0,449,921.57l2.54-.58v7.59A32.63,32.63,0,0,1,442.3,931a57.19,57.19,0,0,1-17.08-.12c-11-2-18.51-8.31-22.49-18.74-2.68-7-3.25-14.39-2.73-21.85a41.79,41.79,0,0,1,2.69-12.52c4.92-12.44,14.28-18.9,27.37-20.24a46.44,46.44,0,0,1,21.09,2.54C452.16,860.45,453.14,860.91,454.47,861.48Z"/><path d="M263.42,887.15c3.66,1.22,5.31,3.63,5.13,7.32-.2,4-2.61,6.15-6.69,7.36,4,1.75,5.35,4.69,4.6,8.52-.69,3.56-3.59,4.51-7,5.19a6.26,6.26,0,0,1,2.22,5.59c-.32,3.3-1.78,5.22-5,6.21a10,10,0,0,1-3,.5c-9.84,0-19.68.15-29.51-.16a46.14,46.14,0,0,1-19.76-5.48,6.78,6.78,0,0,1-4.05-6.64c.06-11.61,0-23.22,0-34.83A13,13,0,0,1,206,869.46c2.26-1.61,4.62-3.08,6.9-4.65s4.64-3.06,6.8-4.79a21.4,21.4,0,0,0,8-14.94c.25-2.25.33-4.52.52-6.79s1-3.32,3.42-3.55a8.58,8.58,0,0,1,8.77,4.28,18.23,18.23,0,0,1,2.28,6.33,27.76,27.76,0,0,1-2,15.3,19,19,0,0,0-1.52,5.28c-.43,4,1.84,6.79,5.89,7.36a38.35,38.35,0,0,0,5,.25c3.28,0,6.56,0,9.84,0a24.39,24.39,0,0,1,3.52.23c2.56.43,4.61,1.55,5.25,4.35a6.7,6.7,0,0,1-2.28,7.25A24.25,24.25,0,0,1,263.42,887.15Z"/><path d="M194.26,897.74v22.44c0,.5,0,1,0,1.51-.15,3.34-2.27,5.53-5.57,5.58q-6.67.11-13.35,0a5.34,5.34,0,0,1-5.58-5,16.81,16.81,0,0,1-.06-2V874.83c0-.42,0-.84,0-1.26.22-3.61,2.31-5.73,6-5.8q6.3-.12,12.6,0c3.84.08,6,2.34,6,6.27C194.28,881.94,194.26,889.84,194.26,897.74Z"/><path d="M490,868.44c3.68,10.26,7.46,20.81,11.32,31.56H478.69Q484.41,884,490,868.44Z"/></svg>