<svg width="1000" height="1000" viewBox="0 0 1000 1000" fill="none" xmlns="http://www.w3.org/2000/svg">
<path d="M278.502 496.2C276.661 496.462 274.934 497.25 273.527 498.471C248.202 520.93 230.241 548.005 222.355 581.245C215.639 609.543 219.868 637.392 227.455 664.755C233.425 686.341 240.466 707.652 247.506 728.926C263.439 777.038 262.021 825.774 253.252 874.81C252.158 880.886 249.944 886.763 247.891 894C252.33 890.513 256.063 886.206 258.887 881.311C269.51 864.464 277.717 846.201 283.266 827.059C288.614 808.343 291.761 789.503 290.841 769.976C289.846 748.977 283.875 729.163 277.283 709.461C268.253 682.498 256.548 656.42 250.677 628.359C242.58 589.767 245.702 552.747 265.38 517.935C269.534 510.548 274.086 503.387 278.465 496.125L278.614 496L278.502 496.2Z" fill="#FEFEFE"/>
<path d="M423.002 98C419.746 100.487 416.378 102.838 413.258 105.462C381.069 132.949 354.34 164.988 334.024 202.25C312.048 242.547 300.176 285.493 300.002 331.71C299.841 371.945 308.347 410.625 319.415 448.87C333.281 496.791 351.331 543.394 365.631 591.128C373.356 616.923 380.029 642.98 382.617 669.894C385.501 699.843 384.92 729.904 384.499 759.928C384.078 789.23 380.599 818.147 372.477 846.392C367.599 863.357 361.236 879.824 355.516 897C362.276 892.436 366.126 885.956 370.496 880.023C392.641 849.814 410.005 816.348 421.974 780.81C433.956 745.946 440.654 709.47 441.845 672.605C443.392 624.983 433.178 579.176 419.869 534.004C405.706 485.834 387.433 439.02 372.081 391.235C365.755 371.547 360.035 351.66 356.519 331.225C352.136 305.679 352.941 280.12 356.147 254.499C361.21 213.933 374.762 174.904 395.913 139.976C404.493 125.648 414.298 112.191 423.002 98Z" fill="#FEFEFE"/>
<path d="M443 167.893L450.076 165.199C463.419 160.134 477.148 157.714 491.436 159.373C521.865 162.903 545.891 179.119 567.802 199.078C592.984 221.93 613.166 248.973 630.601 278.074C632.814 281.816 634.966 282.577 639.069 281.629C660.918 276.64 682.32 270.203 702.763 260.96C731.365 248.05 757.616 231.884 777.973 207.323C781.418 203.181 782.947 199.838 776.916 196.595C774.802 195.485 773.185 193.302 771.419 191.606C743.154 165.074 711.232 144.467 674.585 131.507C651.156 123.224 626.907 119.869 602.223 118.035C564.133 115.204 526.939 117.449 491.772 134.052C474.126 142.359 457.848 152.775 443 167.893Z" fill="#FEFEFE"/>
<path d="M425 211C426.559 238.17 433.665 263.65 447.929 286.844C468.29 319.989 497.404 343.134 532.29 359.731C565.219 375.385 599.881 384.578 636.039 388.864C642.634 389.646 643.994 387.038 645.003 381.546C650.265 352.973 644.679 325.928 633.495 299.702C629.381 290.049 629.156 290.161 619.094 291.975C616.04 292.521 612.947 292.894 609.88 293.366C578.398 298.211 547.052 298.808 516.094 289.987C486.07 281.452 460.971 265.687 442.144 240.381C435.311 231.188 430.361 221.113 425 211Z" fill="#FEFEFE"/>
<path d="M423.007 98C414.343 112.183 404.503 125.682 395.926 140.014C374.78 174.984 361.231 214.061 356.17 254.675C352.964 280.327 352.16 305.917 356.541 331.494C360.057 351.953 365.775 371.864 372.1 391.576C387.447 439.418 405.716 486.289 419.876 534.517C433.144 579.743 443.392 625.605 441.845 673.285C440.655 710.194 433.958 746.714 421.98 781.621C410.007 817.221 392.634 850.744 370.478 881.003C366.109 886.942 362.26 893.455 355.502 898C361.22 880.803 367.582 864.379 372.459 847.332C380.578 819.052 384.056 790.051 384.477 760.763C384.898 730.703 385.479 700.606 382.595 670.62C380.009 643.674 373.337 617.586 365.614 591.76C351.318 543.918 333.272 497.309 319.41 449.33C308.345 411.039 299.841 372.312 300.002 332.029C300.176 285.756 312.045 242.758 334.015 202.413C354.326 165.056 381.048 133.028 413.229 105.509C416.385 102.844 419.752 100.503 423.007 98Z" fill="url(#paint0_linear_82_3647)"/>
<path d="M443 167.882C457.847 152.8 474.087 142.385 491.769 134.052C526.934 117.449 564.127 115.204 602.214 118.035C626.897 119.869 651.145 123.224 674.572 131.507C711.217 144.468 743.137 165.075 771.401 191.607C773.216 193.316 774.783 195.499 776.897 196.597C782.978 199.803 781.398 203.183 777.954 207.325C757.598 231.874 731.286 248.04 702.749 260.963C682.306 270.207 660.906 276.593 639.058 281.633C634.955 282.581 632.841 281.795 630.59 278.078C613.182 248.951 592.975 221.944 567.795 199.079C545.885 179.196 521.861 162.904 491.433 159.362C477.146 157.678 463.418 160.123 450.075 165.187L443 167.882Z" fill="url(#paint1_linear_82_3647)"/>
<path d="M425 211C430.361 221.063 435.311 231.188 442.144 240.381C460.97 265.687 486.068 281.452 516.091 289.987C547.049 298.808 578.431 298.211 609.876 293.366C612.943 292.894 616.035 292.521 619.089 291.975C629.151 290.161 629.376 290.049 633.49 299.702C644.711 325.928 650.259 352.948 644.998 381.546C643.988 387.038 642.629 389.646 636.033 388.864C599.876 384.59 565.215 375.385 532.287 359.731C497.377 343.134 468.289 319.977 447.929 286.844C433.665 263.65 426.559 238.17 425 211Z" fill="url(#paint2_linear_82_3647)"/>
<path d="M278.415 497C274.048 504.233 269.483 511.379 265.329 518.748C245.75 553.481 242.578 590.368 250.676 628.96C256.547 656.92 268.252 682.939 277.283 709.879C283.875 729.536 289.846 749.305 290.841 770.256C291.761 789.739 288.614 808.6 283.266 827.211C277.716 846.309 269.509 864.53 258.885 881.339C256.061 886.223 252.329 890.521 247.89 894C249.942 886.78 252.156 880.916 253.251 874.853C261.958 825.929 263.438 777.303 247.504 729.299C240.464 708.136 233.423 686.811 227.452 665.274C219.877 637.973 215.636 610.187 222.352 581.952C230.239 548.788 248.2 521.774 273.526 499.365C274.933 498.148 276.66 497.361 278.502 497.1L278.415 497Z" fill="url(#paint3_linear_82_3647)"/>
<defs>
<linearGradient id="paint0_linear_82_3647" x1="371.023" y1="898" x2="371.023" y2="98" gradientUnits="userSpaceOnUse">
<stop offset="0.16" stop-color="#EB6F98"/>
<stop offset="0.33" stop-color="#EA6795"/>
<stop offset="0.61" stop-color="#E7538D"/>
<stop offset="0.93" stop-color="#E23180"/>
<stop offset="1" stop-color="#E1297D"/>
</linearGradient>
<linearGradient id="paint1_linear_82_3647" x1="612" y1="116.962" x2="612" y2="281.957" gradientUnits="userSpaceOnUse">
<stop stop-color="#EB6F98"/>
<stop offset="1" stop-color="#E1297D"/>
</linearGradient>
<linearGradient id="paint2_linear_82_3647" x1="535.99" y1="389" x2="535.99" y2="211" gradientUnits="userSpaceOnUse">
<stop stop-color="#18AADD"/>
<stop offset="0.74" stop-color="#2685C3"/>
</linearGradient>
<linearGradient id="paint3_linear_82_3647" x1="255.005" y1="893.925" x2="255.005" y2="497" gradientUnits="userSpaceOnUse">
<stop offset="0.39" stop-color="#18AADD"/>
<stop offset="0.92" stop-color="#247BB4"/>
</linearGradient>
</defs>
</svg>
