<svg width="1000" height="718" viewBox="0 0 1000 718" fill="none" xmlns="http://www.w3.org/2000/svg">
<path d="M129.07 356C127.59 356.21 126.201 356.842 125.07 357.82C104.71 375.82 90.27 397.52 83.93 424.16C78.53 446.84 81.93 469.16 88.03 491.09C92.83 508.39 98.49 525.47 104.15 542.52C116.96 581.08 115.82 620.14 108.77 659.44C107.89 664.31 106.11 669.02 104.46 674.82C108.029 672.025 111.029 668.573 113.3 664.65C121.841 651.148 128.439 636.511 132.9 621.17C137.2 606.17 139.73 591.07 138.99 575.42C138.19 558.59 133.39 542.71 128.09 526.92C120.83 505.31 111.42 484.41 106.7 461.92C100.19 430.99 102.7 401.32 118.52 373.42C121.86 367.5 125.52 361.76 129.04 355.94L129.16 355.84L129.07 356Z" fill="#FEFEFE"/>
<path d="M245.44 35.5901C242.81 37.5901 240.09 39.4801 237.57 41.5901C211.57 63.6901 189.98 89.4501 173.57 119.41C155.82 151.81 146.23 186.34 146.09 223.5C145.96 255.85 152.83 286.95 161.77 317.7C172.97 356.23 187.55 393.7 199.1 432.08C205.34 452.82 210.73 473.77 212.82 495.41C215.15 519.49 214.68 543.66 214.34 567.8C214 591.36 211.19 614.61 204.63 637.32C200.69 650.96 195.55 664.2 190.93 678.01C196.39 674.34 199.5 669.13 203.03 664.36C220.917 640.071 234.942 613.163 244.61 584.59C254.288 556.558 259.698 527.23 260.66 497.59C261.91 459.3 253.66 422.47 242.91 386.15C231.47 347.42 216.71 309.78 204.31 271.36C199.2 255.53 194.58 239.54 191.74 223.11C188.2 202.57 188.85 182.02 191.44 161.42C195.529 128.804 206.475 97.4229 223.56 69.3401C230.49 57.8201 238.41 47.0001 245.44 35.5901Z" fill="#FEFEFE"/>
<path d="M261.39 92.0001L267.08 89.8401C277.81 85.7801 288.85 83.8401 300.34 85.1701C324.81 88.0001 344.13 101 361.75 117C382 135.32 398.23 157 412.25 180.33C414.03 183.33 415.76 183.94 419.06 183.18C436.63 179.18 453.84 174.02 470.28 166.61C493.28 156.26 514.39 143.3 530.76 123.61C533.53 120.29 534.76 117.61 529.91 115.01C528.21 114.12 526.91 112.37 525.49 111.01C502.76 89.7401 477.09 73.2201 447.62 62.8301C428.78 56.1901 409.28 53.5001 389.43 52.0301C358.8 49.7601 328.89 51.5601 300.61 64.8701C286.42 71.5301 273.33 79.8801 261.39 92.0001Z" fill="#FEFEFE"/>
<path d="M247.37 125.86C248.62 147.73 254.32 168.24 265.76 186.91C282.09 213.59 305.44 232.22 333.42 245.58C359.83 258.18 387.63 265.58 416.63 269.03C421.92 269.66 423.01 267.56 423.82 263.14C428.04 240.14 423.56 218.37 414.59 197.26C411.29 189.49 411.11 189.58 403.04 191.04C400.59 191.48 398.11 191.78 395.65 192.16C370.4 196.06 345.26 196.54 320.43 189.44C296.35 182.57 276.22 169.88 261.12 149.51C255.64 142.11 251.67 134 247.37 125.86Z" fill="#FEFEFE"/>
<path d="M386.16 442.85C384.372 432.174 383.602 421.352 383.86 410.53C384.01 400.3 385.86 398.23 395.86 396.76C405.05 395.41 413.32 392.44 418.79 384.28C419.7 382.92 421.19 381.53 419.86 379.85C418.69 378.38 417.05 379.44 415.71 379.93C408.945 382.345 401.721 383.196 394.58 382.42C382.13 381.3 369.88 378.87 357.15 379.61C344.96 380.33 334.3 383.77 325.28 391.61C313.81 401.61 312.44 416.97 321.33 429.46C325.87 435.83 333.82 438.39 340.71 435.69C348.53 432.62 355.32 422.91 354.4 416.04C354.25 414.91 354.27 413.46 352.94 413.1C351.32 412.66 351.29 414.37 350.73 415.26C350.453 415.864 350.216 416.485 350.02 417.12C347.11 423.23 340.52 426.18 332.18 425.12C326.09 424.34 320.9 420.12 319.77 415.12C318.19 408.03 320.83 402.59 327.77 398.55C334.718 394.51 342.668 392.52 350.7 392.81C359.57 393.04 368.15 395.08 376.79 396.81C382.79 397.99 383.06 398.06 378.87 402.71C367.3 415.55 365.07 430.41 367.59 446.97C369.59 459.91 371.59 472.97 368.38 486.18C364.06 503.91 346.73 511.83 331.26 502.98C318.57 495.72 311.04 471.98 317.16 458.6C321.16 449.77 328.64 446.01 336.29 448.94C343.64 451.75 347.7 461.06 345.24 469.45C343.86 474.14 340.92 476.14 335.9 475.75C335.24 475.7 334.59 475.53 333.9 475.48C332.68 475.39 331.44 475.58 330.98 476.86C330.45 478.36 331.83 478.79 332.77 479.42C335.1 480.98 337.84 481.04 340.46 481.31C347.58 482.05 355.25 478.11 357.68 472.62C359.198 469.252 359.611 465.49 358.858 461.874C358.105 458.257 356.226 454.972 353.49 452.49C348.88 448.079 342.928 445.337 336.58 444.7C322.65 443.29 311.11 447.61 303.45 459.56C296.09 471.05 298.37 482.68 305.45 493.39C322.67 519.59 365.45 516.54 381.45 488.24C386.72 478.94 387.24 468.95 386.61 458.7C386.42 455.7 386.37 452.7 387.94 449.95C389.51 447.2 391.78 446.1 394.68 447.28C397.15 448.28 398.11 450.28 396.99 452.99C396.55 453.99 395.83 455.31 397.27 456.06C398.94 456.92 399.69 455.42 400.37 454.35C403.11 449.99 405.64 445.5 408.48 441.2C410.58 438.02 409.6 436.41 406.3 435.35C398.28 432.74 392 435.32 386.16 442.85Z" fill="#FEFEFE"/>
<path d="M694.12 428.49C695.5 428.67 696.21 427.58 697.02 426.83C698.95 425.04 700.6 422.9 702.66 421.29C705.9 418.75 705.38 417 702.53 414.29C694.12 406.41 694.24 406.29 686.02 414.54C685.02 415.54 683.54 416.36 683.64 418.11C683.71 419.34 692.94 428.37 694.12 428.49Z" fill="#FEFEFE"/>
<path d="M131.3 352.94L130.95 353.27L131.22 353.34L131.3 352.94Z" fill="#FEFEFE"/>
<path d="M245.44 35.5901C238.44 46.9801 230.49 57.8201 223.56 69.3301C206.475 97.4129 195.529 128.794 191.44 161.41C188.85 182.01 188.2 202.56 191.74 223.1C194.58 239.53 199.2 255.52 204.31 271.35C216.71 309.77 231.47 347.41 242.91 386.14C253.63 422.46 261.91 459.29 260.66 497.58C259.698 527.22 254.288 556.548 244.61 584.58C234.937 613.169 220.901 640.091 203 664.39C199.47 669.16 196.36 674.39 190.9 678.04C195.52 664.23 200.66 651.04 204.6 637.35C211.16 614.64 213.97 591.35 214.31 567.83C214.65 543.69 215.12 519.52 212.79 495.44C210.7 473.8 205.31 452.85 199.07 432.11C187.52 393.69 172.94 356.26 161.74 317.73C152.8 286.98 145.93 255.88 146.06 223.53C146.2 186.37 155.79 151.84 173.54 119.44C189.95 89.4401 211.54 63.7201 237.54 41.6201C240.09 39.4801 242.81 37.6001 245.44 35.5901Z" fill="url(#paint0_linear_68_3647)"/>
<path d="M261.39 92.0001C273.33 79.9101 286.39 71.5601 300.61 64.8801C328.89 51.5701 358.8 49.7701 389.43 52.0401C409.28 53.5101 428.78 56.2001 447.62 62.8401C477.09 73.2301 502.76 89.7501 525.49 111.02C526.95 112.39 528.21 114.14 529.91 115.02C534.8 117.59 533.53 120.3 530.76 123.62C514.39 143.3 493.23 156.26 470.28 166.62C453.84 174.03 436.63 179.15 419.06 183.19C415.76 183.95 414.06 183.32 412.25 180.34C398.25 156.99 382 135.34 361.75 117.01C344.13 101.07 324.81 88.0101 300.34 85.1701C288.85 83.8201 277.81 85.7801 267.08 89.8401L261.39 92.0001Z" fill="url(#paint1_linear_68_3647)"/>
<path d="M694.19 441.22C695.31 444.22 694.78 447.22 694.79 450.22C694.86 462.89 694.79 475.55 694.87 488.22C694.87 490.79 694.2 494.05 697.11 495.34C700.02 496.63 701.94 493.75 703.72 491.94C719.113 476.253 734.447 460.523 749.72 444.75C754.25 440.1 757.6 440.36 761.28 445.75C763.115 448.554 764.027 451.862 763.89 455.21C763.8 465.71 763.82 476.21 763.89 486.7C763.89 488.26 763.2 490.41 765.24 491.05C766.92 491.59 767.68 489.73 768.62 488.6C780.4 474.54 792.28 460.6 803.9 446.38C806.9 442.68 810.38 440.95 814.75 442.49C819.12 444.03 819.91 447.97 819.86 452.32C819.72 464.81 819.86 477.32 819.86 489.8C819.86 491.9 819.38 494.34 822.05 495.36C824.72 496.38 826.05 494.36 827.54 492.86C840.653 479.62 853.743 466.333 866.81 453C876.69 442.88 888.44 440 901.52 444.86C915.25 450.01 922.73 460.46 923.86 475.17C924.12 478.61 923.86 482.08 923.86 485.88C926.86 484.94 928.27 482.33 930.3 480.54C931.01 479.91 931.82 478.86 932.82 479.62C933.82 480.38 933.47 481.46 933.08 482.41C932.807 483.014 932.439 483.572 931.99 484.06C925.55 491.26 919.04 498.44 911.59 504.59C900.37 513.87 887.71 515.89 874.89 508.59C862.36 501.49 855.99 490.24 856.57 475.52C856.64 473.88 856.85 472.24 857 470.52C855.21 469.95 854.54 471.24 853.63 472.08C841.3 483.49 829.55 495.49 817.93 507.62C817.049 508.616 816.082 509.533 815.04 510.36C810.44 513.7 806.61 512.26 805.59 506.7C805.223 504.231 805.055 501.736 805.09 499.24C804.84 485.92 805.63 472.59 804.67 459.24C804.57 457.81 805.16 455.96 803.48 455.24C801.58 454.41 800.48 455.96 799.4 457.24C788.247 470.573 777.077 483.907 765.89 497.24C762.15 501.7 758.51 506.24 754.72 510.66C753.72 511.83 752.82 513.82 750.72 512.91C748.86 512.08 749.18 510.12 749.18 508.49C749.18 493 749.28 477.49 749.18 462.01C749.18 459.3 750.42 455.49 747.53 454.2C744.35 452.79 742.93 456.76 741.08 458.63C726.08 473.71 711.3 488.92 696.41 504.08C694.09 506.44 691.95 509.02 689.05 510.78C685.29 513.07 682.87 512.35 681.18 508.33C680.358 506.14 679.99 503.806 680.1 501.47C680.14 490.303 680.14 479.14 680.1 467.98V461.23L678.85 460.8L664.33 474.8C654.04 484.73 644.04 494.99 633.33 504.49C621.52 514.98 606.98 514.62 597.12 503.97C590.54 496.85 588.51 487.97 589.49 478.45C589.64 477 590.39 475.57 589.49 473.69C584.37 478.75 579.49 483.82 574.32 488.62C566.95 495.52 560.84 503.76 552.03 509.14C539.89 516.55 525.46 514.14 516.67 503.03C515.61 501.71 515.47 500.78 516.67 499.64C518.85 497.58 520.98 495.48 523.19 493.45C524.75 492.02 525.81 492.01 526.95 494.23C528.343 497.257 530.172 500.064 532.38 502.56C538.58 509 548.15 509.01 555.48 502.99C561.72 497.87 562.81 488.62 558.25 481.28C552.68 472.28 544.18 466.28 536.61 459.33C534.45 457.33 533.15 458.84 531.61 460.33C516.843 475.45 502.047 490.55 487.22 505.63C485.656 507.356 483.95 508.949 482.12 510.39C478.07 513.33 474.46 511.92 473.12 507.05C472.12 503.62 472.45 500.11 472.41 496.62C472.41 494.84 472.41 493.07 472.41 490.47C468.24 494.55 464.66 497.87 461.27 501.38C451.41 511.57 440.61 514.58 430.94 509.71C425.196 506.773 420.525 502.1 417.591 496.354C414.658 490.609 413.611 484.085 414.6 477.71C414.77 476.59 414.98 475.48 415.27 473.82C410.49 475.1 408.84 479.82 404.67 481.49C403.3 478.68 405.16 476.97 406.67 475.49C415.36 467.02 423.16 457.63 432.67 450.05C440.24 444.05 448.6 440.97 458.19 444.98C465.04 447.84 470.28 456.68 469.68 463.98C469.54 465.81 463.42 473.49 461.87 473.88C461.547 473.966 461.205 473.946 460.894 473.823C460.582 473.701 460.318 473.483 460.14 473.2C459.82 472.818 459.654 472.331 459.675 471.834C459.695 471.336 459.9 470.864 460.25 470.51C461.65 468.65 464.95 467.75 463.82 464.51C462.484 460.315 459.574 456.802 455.7 454.71C443.16 448.27 427.12 450.71 424.86 469.3C423.06 484.08 431.17 496.92 444.62 499.52C449.37 500.43 454.02 500.04 458.1 497.37C466.59 491.81 474.43 485.93 472.54 473.71C471.73 468.5 472.82 463.02 472.25 457.71C471.68 452.4 474.25 449.19 478.16 446.6C480.98 444.75 483.5 440.12 486.53 441.6C489.13 442.85 487.36 447.73 487.39 450.98C487.51 463.81 487.39 476.64 487.48 489.47C487.48 491.53 486.68 494.05 489.14 495.3C491.96 496.75 493.47 494.24 494.98 492.7C511.647 475.72 528.273 458.69 544.86 441.61C545.79 440.61 546.75 439.72 547.7 438.79C548.65 437.86 549.58 437.33 550.7 438.45C551.61 439.37 551.01 440.17 550.56 441.12C547.44 447.6 547.43 449.12 552.77 453.42C563.77 462.42 569.69 473.31 567.44 487.83C567.44 488.05 567.75 488.33 568.23 489.03C572.84 485.46 576.49 481.03 580.41 476.85C588.97 467.78 597.12 458.29 607.05 450.62C618.11 442.07 630.27 439.5 643.71 444.01C648.41 445.59 648.58 446.23 644.86 449.67C644.37 450.12 643.86 450.51 643.37 451C638.64 456.4 634.54 457.79 627.12 453.51C614.62 446.3 601.24 454.76 599.71 469.3C598.26 485 606 496.92 619.56 499.7C622.91 500.447 626.392 500.365 629.704 499.46C633.015 498.556 636.055 496.857 638.56 494.51C652.85 481.78 666.31 468.16 679.95 454.74C684.58 450.22 689.32 445.84 694.19 441.22ZM881.29 449.75C874.68 449.64 869.79 453.21 867.44 459.75C865.228 465.921 865.395 472.696 867.91 478.75C873.4 492.6 881.75 503.4 897.81 505.48C904.46 506.34 909.37 503.48 912.41 497.57C916.33 489.91 914.82 482.46 912.22 474.89C907.26 460.53 894.41 450 881.29 449.75Z" fill="#E72379"/>
<path d="M247.37 125.86C251.67 133.96 255.64 142.11 261.12 149.51C276.22 169.88 296.35 182.57 320.43 189.44C345.26 196.54 370.43 196.06 395.65 192.16C398.11 191.78 400.59 191.48 403.04 191.04C411.11 189.58 411.29 189.49 414.59 197.26C423.59 218.37 428.04 240.12 423.82 263.14C423.01 267.56 421.92 269.66 416.63 269.03C387.63 265.59 359.83 258.18 333.42 245.58C305.42 232.22 282.09 213.58 265.76 186.91C254.32 168.24 248.62 147.73 247.37 125.86Z" fill="url(#paint2_linear_68_3647)"/>
<path d="M129 356C125.49 361.81 121.82 367.55 118.48 373.47C102.74 401.37 100.19 431 106.7 462C111.42 484.46 120.83 505.36 128.09 527C133.39 542.79 138.19 558.67 138.99 575.5C139.73 591.15 137.2 606.3 132.9 621.25C128.439 636.591 121.841 651.228 113.3 664.73C111.029 668.653 108.029 672.105 104.46 674.9C106.11 669.1 107.89 664.39 108.77 659.52C115.77 620.22 116.96 581.16 104.15 542.6C98.49 525.6 92.83 508.47 88.03 491.17C81.94 469.24 78.53 446.92 83.93 424.24C90.27 397.6 104.71 375.9 125.07 357.9C126.201 356.922 127.59 356.29 129.07 356.08L129 356Z" fill="url(#paint3_linear_68_3647)"/>
<path d="M386.16 442.85C391.97 435.32 398.28 432.74 406.31 435.32C409.61 436.38 410.59 437.99 408.49 441.17C405.65 445.47 403.12 449.96 400.38 454.32C399.7 455.39 398.95 456.89 397.28 456.03C395.84 455.28 396.56 454.03 397 452.96C398.12 450.27 397.16 448.26 394.69 447.25C391.79 446.07 389.46 447.33 387.95 449.92C386.44 452.51 386.43 455.63 386.62 458.67C387.25 468.92 386.73 478.91 381.46 488.21C365.46 516.51 322.68 519.56 305.46 493.36C298.46 482.65 296.14 471.02 303.46 459.53C311.12 447.58 322.66 443.26 336.59 444.67C342.938 445.307 348.89 448.049 353.5 452.46C356.236 454.942 358.115 458.227 358.868 461.844C359.62 465.46 359.208 469.222 357.69 472.59C355.26 478.08 347.59 482.02 340.47 481.28C337.85 481.01 335.11 480.95 332.78 479.39C331.84 478.76 330.46 478.33 330.99 476.83C331.45 475.55 332.69 475.36 333.91 475.45C334.58 475.45 335.23 475.67 335.91 475.72C340.91 476.11 343.91 474.11 345.25 469.42C347.71 461.03 343.65 451.72 336.3 448.91C328.65 445.98 321.21 449.74 317.17 458.57C311.05 471.98 318.58 495.69 331.27 502.95C346.74 511.8 364.07 503.88 368.39 486.15C371.59 472.98 369.58 459.88 367.6 446.94C365.08 430.38 367.31 415.52 378.88 402.68C383.07 398.03 382.76 397.96 376.8 396.78C368.16 395.08 359.58 393.04 350.71 392.78C342.678 392.49 334.728 394.48 327.78 398.52C320.78 402.52 318.17 408 319.78 415.09C320.91 420.09 326.1 424.34 332.19 425.09C340.53 426.16 347.12 423.21 350.03 417.09C350.226 416.455 350.463 415.834 350.74 415.23C351.3 414.34 351.33 412.63 352.95 413.07C354.28 413.43 354.26 414.88 354.41 416.01C355.33 422.88 348.54 432.59 340.72 435.66C333.83 438.36 325.88 435.8 321.34 429.43C312.45 416.94 313.82 401.61 325.29 391.58C334.29 383.7 344.97 380.26 357.16 379.58C369.89 378.84 382.16 381.27 394.59 382.39C401.731 383.166 408.955 382.315 415.72 379.9C417.06 379.41 418.72 378.35 419.87 379.82C421.2 381.5 419.71 382.89 418.8 384.25C413.33 392.41 405.06 395.38 395.87 396.73C385.87 398.2 384.02 400.27 383.87 410.5C383.607 421.331 384.374 432.163 386.16 442.85Z" fill="#E72379"/>
<path d="M694.12 428.48C692.94 428.37 683.71 419.34 683.64 418.15C683.54 416.4 684.99 415.62 686.02 414.58C694.24 406.32 694.12 406.45 702.53 414.33C705.38 417 705.9 418.75 702.66 421.33C700.6 422.9 699 425 697 426.83C696.21 427.58 695.5 428.67 694.12 428.48Z" fill="#E72379"/>
<path d="M131.3 352.94L131.22 353.34L130.95 353.27L131.3 352.94Z" fill="#2594CF"/>
<path d="M129.07 356.02L129.16 355.89L129.04 356L129.07 356.02Z" fill="#2594CF"/>
<path d="M894.11 404.89C893.73 404.89 893.43 404.78 893.21 404.56C892.99 404.32 892.88 404 892.88 403.6V385.66H886.13C885.77 385.66 885.49 385.56 885.29 385.36C885.09 385.16 884.99 384.9 884.99 384.58C884.99 384.24 885.09 383.98 885.29 383.8C885.49 383.62 885.77 383.53 886.13 383.53H902.12C902.48 383.53 902.76 383.62 902.96 383.8C903.16 383.98 903.26 384.24 903.26 384.58C903.26 384.92 903.16 385.19 902.96 385.39C902.76 385.57 902.48 385.66 902.12 385.66H895.37V403.6C895.37 404 895.26 404.32 895.04 404.56C894.84 404.78 894.53 404.89 894.11 404.89ZM906.937 404.89C906.577 404.89 906.297 404.79 906.097 404.59C905.897 404.37 905.797 404.07 905.797 403.69V384.52C905.797 384.12 905.897 383.82 906.097 383.62C906.297 383.42 906.577 383.32 906.937 383.32C907.257 383.32 907.507 383.39 907.687 383.53C907.887 383.65 908.067 383.86 908.227 384.16L916.447 399.64H915.547L923.737 384.16C923.897 383.86 924.067 383.65 924.247 383.53C924.427 383.39 924.687 383.32 925.027 383.32C925.367 383.32 925.637 383.42 925.837 383.62C926.037 383.82 926.137 384.12 926.137 384.52V403.69C926.137 404.07 926.037 404.37 925.837 404.59C925.657 404.79 925.377 404.89 924.997 404.89C924.637 404.89 924.357 404.79 924.157 404.59C923.957 404.37 923.857 404.07 923.857 403.69V386.83H924.577L917.077 400.9C916.937 401.16 916.787 401.35 916.627 401.47C916.487 401.57 916.277 401.62 915.997 401.62C915.717 401.62 915.497 401.56 915.337 401.44C915.177 401.32 915.037 401.14 914.917 400.9L907.327 386.8H908.047V403.69C908.047 404.07 907.947 404.37 907.747 404.59C907.567 404.79 907.297 404.89 906.937 404.89Z" fill="#231F20"/>
<defs>
<linearGradient id="paint0_linear_68_3647" x1="203.44" y1="678.04" x2="203.44" y2="35.5901" gradientUnits="userSpaceOnUse">
<stop offset="0.16" stop-color="#EB6F98"/>
<stop offset="0.33" stop-color="#EA6795"/>
<stop offset="0.61" stop-color="#E7538D"/>
<stop offset="0.93" stop-color="#E23180"/>
<stop offset="1" stop-color="#E1297D"/>
</linearGradient>
<linearGradient id="paint1_linear_68_3647" x1="397.3" y1="51.1801" x2="397.3" y2="183.45" gradientUnits="userSpaceOnUse">
<stop stop-color="#EB6F98"/>
<stop offset="1" stop-color="#E1297D"/>
</linearGradient>
<linearGradient id="paint2_linear_68_3647" x1="336.39" y1="269.14" x2="336.39" y2="125.86" gradientUnits="userSpaceOnUse">
<stop stop-color="#18AADD"/>
<stop offset="0.74" stop-color="#2685C3"/>
</linearGradient>
<linearGradient id="paint3_linear_68_3647" x1="110.18" y1="674.84" x2="110.18" y2="356" gradientUnits="userSpaceOnUse">
<stop offset="0.39" stop-color="#18AADD"/>
<stop offset="0.92" stop-color="#247BB4"/>
</linearGradient>
</defs>
</svg>
